<?xml version="1.0" encoding="UTF-8" standalone="no"?>
<!-- Created with Inkscape (http://www.inkscape.org/) -->

<svg
   version="1.1"
   id="svg9"
   xml:space="preserve"
   width="1698.6667"
   height="337.33334"
   viewBox="0 0 1698.6667 337.33334"
   sodipodi:docname="map_markers.svg"
   inkscape:version="1.1.1 (3bf5ae0d25, 2021-09-20)"
   xmlns:inkscape="http://www.inkscape.org/namespaces/inkscape"
   xmlns:sodipodi="http://sodipodi.sourceforge.net/DTD/sodipodi-0.dtd"
   xmlns="http://www.w3.org/2000/svg"
   xmlns:svg="http://www.w3.org/2000/svg"><defs
     id="defs13"><clipPath
       clipPathUnits="userSpaceOnUse"
       id="clipPath23"><path
         d="M 0,253 H 1274 V 0 H 0 Z"
         id="path21" /></clipPath></defs><sodipodi:namedview
     id="namedview11"
     pagecolor="#505050"
     bordercolor="#eeeeee"
     borderopacity="1"
     inkscape:pageshadow="0"
     inkscape:pageopacity="0"
     inkscape:pagecheckerboard="0"
     showgrid="false"
     inkscape:zoom="0.47861065"
     inkscape:cx="-79.396478"
     inkscape:cy="40.742929"
     inkscape:window-width="1839"
     inkscape:window-height="1057"
     inkscape:window-x="-8"
     inkscape:window-y="-8"
     inkscape:window-maximized="1"
     inkscape:current-layer="g15" /><g
     id="g15"
     inkscape:groupmode="layer"
     inkscape:label="map_markers"
     transform="matrix(1.3333333,0,0,-1.3333333,0,337.33333)"><g
       id="g17"><g
         id="g19"
         clip-path="url(#clipPath23)"><g
           id="g25"
           transform="translate(451.8887,78.5)"><path
             d="m 0,0 h -52.389 c -11.028,0 -20,8.972 -20,20 v 134 c 0,11.028 8.972,20 20,20 h 251 c 11.029,0 20,-8.972 20,-20 V 20 c 0,-11.028 -8.971,-20 -20,-20 H 146.223 L 73.111,-73.111 Z"
             style="fill:#3260c6;fill-opacity:1;fill-rule:nonzero;stroke:none"
             id="path27" /></g><g
           id="g29"
           transform="translate(650.5,253)"><path
             d="m 0,0 h -251 c -11.322,0 -20.5,-9.178 -20.5,-20.5 v -134 c 0,-11.322 9.178,-20.5 20.5,-20.5 h 52.182 L -125.5,-248.318 -52.182,-175 H 0 c 11.322,0 20.5,9.178 20.5,20.5 v 134 C 20.5,-9.178 11.322,0 0,0 m 0,-1 c 10.752,0 19.5,-8.748 19.5,-19.5 v -134 C 19.5,-165.252 10.752,-174 0,-174 h -52.182 -0.414 l -0.293,-0.293 -72.611,-72.611 -72.611,72.611 -0.293,0.293 H -198.818 -251 c -10.752,0 -19.5,8.748 -19.5,19.5 v 134 c 0,10.752 8.748,19.5 19.5,19.5 H 0"
             style="fill:#000000;fill-opacity:1;fill-rule:nonzero;stroke:none"
             id="path31" /></g><g
           id="g33"
           transform="translate(529.4805,163.2773)"><path
             d="m 0,0 c 1.601,-0.209 2.96,-0.383 3.03,-0.418 0.035,-0.035 1.636,-6.027 3.587,-13.307 1.917,-7.279 3.588,-13.445 3.657,-13.724 0.175,-0.383 -0.174,-0.453 -1.812,-0.244 -9.056,1.046 -16.161,0.871 -21.596,-0.522 -1.603,-0.419 -2.995,-0.662 -3.099,-0.558 -0.523,0.523 -9.858,25.846 -9.649,26.055 0.418,0.418 9.579,2.716 12.26,3.065 C -11.076,0.697 -4.633,0.522 0,0 m 15.709,49.81 c 4.005,-1.638 7.523,-2.717 10.729,-3.274 3.692,-0.662 10.17,-0.662 13.794,0 1.534,0.278 2.96,0.523 3.169,0.523 0.209,0 0.732,-4.633 1.359,-12.784 0.558,-7.07 1.046,-12.888 1.081,-12.958 0.07,-0.069 1.568,0.384 3.343,1.011 3.623,1.254 9.998,4.354 13.69,6.617 1.359,0.802 2.542,1.534 2.716,1.638 0.139,0.07 0.244,-6.757 0.244,-15.186 V 0.035 L 64.196,-0.802 C 61.654,-2.056 55.244,-4.354 51.587,-5.33 49.81,-5.818 48.278,-6.271 48.174,-6.34 c -0.07,-0.07 0.348,-6.062 0.941,-13.272 0.592,-7.244 0.975,-13.271 0.871,-13.41 -0.558,-0.907 -13.341,-1.325 -16.894,-0.523 -0.836,0.174 -0.976,0.627 -3.936,13.62 -1.673,7.383 -2.96,13.515 -2.89,13.619 0.104,0.105 2.125,-0.104 4.458,-0.418 2.368,-0.314 5.539,-0.557 7.07,-0.557 2.612,0 9.788,0.801 10.101,1.114 0.139,0.14 -1.95,26.82 -2.124,27.029 -0.035,0.07 -1.672,-0.139 -3.622,-0.487 -6.722,-1.115 -13.62,-0.279 -20.516,2.437 -1.255,0.488 -2.265,0.871 -2.335,0.802 -0.035,-0.035 1.429,-6.618 3.239,-14.629 1.847,-8.011 3.239,-14.629 3.17,-14.733 -0.105,-0.07 -3.065,0.592 -6.585,1.533 -3.518,0.941 -8.29,2.161 -10.588,2.681 -2.3,0.489 -4.493,1.046 -4.877,1.22 -0.592,0.209 -1.394,2.821 -4.981,16.406 -2.335,8.883 -4.25,16.301 -4.25,16.475 0.035,1.15 8.987,-1.672 18.217,-5.713 3.482,-1.533 6.34,-2.716 6.373,-2.681 0.069,0.07 -5.365,23.999 -5.922,26.124 -0.07,0.314 -0.105,0.593 -0.035,0.593 0.038,0 1.223,-0.488 2.65,-1.08 m -28.806,10.206 c 0.174,-0.313 7.175,-26.473 7.175,-26.856 0,-0.105 -2.091,-0.174 -4.598,-0.105 -5.121,0.14 -10.519,-0.313 -15.639,-1.324 -3.553,-0.697 -11.042,-2.647 -11.773,-3.1 -0.314,-0.209 1.08,-4.179 5.504,-15.534 3.274,-8.36 5.957,-15.395 5.957,-15.639 -0.035,-0.209 -1.88,-1.29 -4.145,-2.368 -4.738,-2.3 -10.137,-5.783 -15.327,-9.963 -1.987,-1.603 -3.797,-2.995 -4.006,-3.064 -0.244,-0.105 -2.751,6.444 -6.234,16.126 l -5.853,16.302 1.15,0.975 c 4.075,3.449 11.529,8.012 18.114,11.076 2.263,1.046 4.109,2.055 4.109,2.264 0,0.209 -2.193,5.992 -4.876,12.853 -2.682,6.896 -4.773,12.609 -4.598,12.749 0.383,0.348 4.981,1.951 8.464,2.925 3.762,1.08 7.663,1.847 12.156,2.438 3.762,0.489 14.141,0.664 14.42,0.245 m -11.007,7.245 c -16.823,-1.255 -33.264,-7.384 -46.361,-17.312 -2.89,-2.159 -3.448,-2.472 -3.588,-1.949 -0.104,0.348 -0.662,1.881 -1.289,3.413 -1.394,3.413 -2.472,4.284 -4.738,3.657 -1.672,-0.453 -2.472,-1.464 -2.472,-3.17 0,-1.742 -1.219,1.708 45.108,-127.415 4.876,-13.654 9.126,-25.288 9.44,-25.844 1.637,-3.204 6.408,-2.16 6.408,1.394 0,0.906 -2.821,9.231 -8.499,25.079 l -8.499,23.72 1.812,1.638 c 5.852,5.295 15.325,11.041 21.944,13.341 4.982,1.743 8.395,2.194 14.491,1.986 6.339,-0.243 12.226,-1.184 18.774,-3.029 11.843,-3.344 14.909,-3.901 21.805,-3.867 7.593,0 13.69,1.046 21.597,3.727 4.841,1.603 9.195,3.622 10.1,4.668 0.696,0.766 0.696,1.324 0.801,48.939 0.035,30.374 -0.035,48.52 -0.244,49.077 -0.801,2.055 -3.761,2.682 -5.748,1.186 C 61.409,62.494 53.537,58.105 47.825,55.911 43.854,54.413 38.734,53.334 34.659,53.125 27.867,52.742 22.781,54.24 9.405,60.509 c -12.539,5.846 -21.387,7.623 -33.509,6.752"
             style="fill:#ffffff;fill-opacity:1;fill-rule:nonzero;stroke:none"
             id="path35" /></g><g
           id="g37"
           transform="translate(830.8887,78.5)"><path
             d="m 0,0 h -52.389 c -11.028,0 -20,8.972 -20,20 v 134 c 0,11.028 8.972,20 20,20 h 251 c 11.029,0 20,-8.972 20,-20 V 20 c 0,-11.028 -8.971,-20 -20,-20 H 146.223 L 73.111,-73.111 Z"
             style="fill:#dd2900;fill-opacity:1;fill-rule:nonzero;stroke:none"
             id="path39" /></g><g
           id="g41"
           transform="translate(1029.5,253)"><path
             d="m 0,0 h -251 c -11.322,0 -20.5,-9.178 -20.5,-20.5 v -134 c 0,-11.322 9.178,-20.5 20.5,-20.5 h 52.182 L -125.5,-248.318 -52.182,-175 H 0 c 11.322,0 20.5,9.178 20.5,20.5 v 134 C 20.5,-9.178 11.322,0 0,0 m 0,-1 c 10.752,0 19.5,-8.748 19.5,-19.5 v -134 C 19.5,-165.252 10.752,-174 0,-174 h -52.182 -0.414 l -0.293,-0.293 -72.611,-72.611 -72.611,72.611 -0.293,0.293 H -198.818 -251 c -10.752,0 -19.5,8.748 -19.5,19.5 v 134 c 0,10.752 8.748,19.5 19.5,19.5 H 0"
             style="fill:#000000;fill-opacity:1;fill-rule:nonzero;stroke:none"
             id="path43" /></g><g
           id="g45"
           transform="translate(897.1504,233.3799)"><path
             d="m 0,0 c -39.361,-3.472 -70.947,-33.542 -76.522,-72.805 -1.124,-7.923 -0.784,-20.928 0.733,-28.164 1.369,-6.503 4.351,-15.304 6.846,-20.341 2.64,-5.28 5.33,-9.73 5.868,-9.73 0.44,0 17.064,9.583 17.701,10.218 0.293,0.245 -3.814,8.216 -4.792,9.29 -0.147,0.147 -2.444,-1.074 -6.454,-3.472 l -1.565,-0.978 -1.026,2.396 c -2.643,6.163 -4.794,14.084 -5.577,20.831 l -0.341,2.787 h 4.45 4.45 v 5.623 5.624 h -4.4 c -5.085,0 -4.792,-0.488 -3.667,6.161 1.27,7.137 4.496,17.357 6.061,18.922 0.294,0.293 1.711,-0.245 4.01,-1.565 1.956,-1.172 3.766,-2.103 3.96,-2.151 0.196,-0.05 1.565,2.004 3.032,4.547 l 2.688,4.645 -3.861,2.201 c -2.152,1.223 -3.912,2.444 -3.912,2.737 0,0.294 1.711,2.591 3.813,5.134 3.814,4.547 8.606,9.095 12.762,12.126 l 2.151,1.516 2.249,-3.912 c 1.173,-2.151 2.348,-3.912 2.543,-3.912 0.293,0 8.752,4.743 9.144,5.133 0.097,0.098 -0.88,1.956 -2.152,4.107 -1.271,2.201 -2.201,4.058 -2.102,4.157 0.488,0.439 6.406,2.739 10.122,3.912 4.399,1.369 11.392,2.739 14.081,2.739 h 1.663 v -4.645 -4.645 h 5.378 5.378 v 4.645 4.645 h 1.663 c 2.689,0 9.682,-1.37 14.082,-2.739 3.667,-1.125 9.632,-3.473 10.121,-3.912 0.097,-0.049 -0.879,-1.956 -2.15,-4.107 -1.223,-2.201 -2.201,-4.059 -2.103,-4.157 0.392,-0.392 8.851,-5.133 9.144,-5.133 0.194,0 1.369,1.759 2.591,3.912 l 2.2,3.96 3.129,-2.298 c 5.183,-3.813 15.646,-15.01 15.598,-16.672 0,-0.195 -1.759,-1.37 -3.912,-2.591 l -3.863,-2.201 2.69,-4.645 c 1.466,-2.543 2.836,-4.597 3.033,-4.547 0.195,0.049 2.003,0.979 3.96,2.151 2.297,1.32 3.715,1.858 4.008,1.565 1.565,-1.565 4.792,-11.785 6.064,-18.924 1.124,-6.699 1.466,-6.161 -3.912,-6.161 h -4.646 v -5.623 -5.623 h 4.694 4.693 l -0.342,-2.788 c -0.781,-6.747 -2.933,-14.668 -5.574,-20.829 l -1.026,-2.396 -1.565,0.978 c -4.011,2.396 -6.308,3.619 -6.454,3.472 -0.979,-1.074 -5.085,-9.045 -4.792,-9.29 0.635,-0.635 17.261,-10.218 17.7,-10.218 1.173,0 7.726,13.005 9.925,19.803 3.374,10.22 4.499,18.629 4.107,29.973 -0.783,22.053 -9.143,41.22 -24.741,56.817 C 49.434,-6.895 24.595,2.151 0,0"
             style="fill:#ffffff;fill-opacity:1;fill-rule:nonzero;stroke:none"
             id="path47" /></g><g
           id="g49"
           transform="translate(900.084,157.7876)"><path
             d="m 0,0 c -7.677,-3.326 -8.165,-14.18 -0.831,-18.287 2.591,-1.516 6.553,-1.613 9.339,-0.245 1.956,0.928 2.004,0.928 22.884,-0.93 11.539,-1.076 21.024,-1.809 21.123,-1.711 0.095,0.098 -8.657,3.814 -19.412,8.214 -18.484,7.531 -19.755,8.117 -20.928,9.83 C 9.681,0.341 4.107,1.809 0,0"
             style="fill:#ffffff;fill-opacity:1;fill-rule:nonzero;stroke:none"
             id="path51" /></g><g
           id="g53"
           transform="translate(72.8887,78.5)"><path
             d="m 0,0 h -52.389 c -11.028,0 -20,8.972 -20,20 v 134 c 0,11.028 8.972,20 20,20 h 251 c 11.028,0 20,-8.972 20,-20 V 20 c 0,-11.028 -8.972,-20 -20,-20 H 146.223 L 73.111,-73.111 Z"
             style="fill:#3260c6;fill-opacity:1;fill-rule:nonzero;stroke:none"
             id="path55" /></g><g
           id="g57"
           transform="translate(271.5,253)"><path
             d="m 0,0 h -251 c -11.322,0 -20.5,-9.178 -20.5,-20.5 v -134 c 0,-11.322 9.178,-20.5 20.5,-20.5 h 52.182 L -125.5,-248.318 -52.182,-175 H 0 c 11.322,0 20.5,9.178 20.5,20.5 v 134 C 20.5,-9.178 11.322,0 0,0 m 0,-1 c 10.752,0 19.5,-8.748 19.5,-19.5 v -134 C 19.5,-165.252 10.752,-174 0,-174 h -52.182 -0.414 l -0.293,-0.293 -72.611,-72.611 -72.611,72.611 -0.293,0.293 H -198.818 -251 c -10.752,0 -19.5,8.748 -19.5,19.5 v 134 c 0,10.752 8.748,19.5 19.5,19.5 H 0"
             style="fill:#000000;fill-opacity:1;fill-rule:nonzero;stroke:none"
             id="path59" /></g><g
           id="g61"
           transform="translate(50.9248,145.418)"><path
             d="m 0,0 c 3.422,0 6.03,2.771 6.03,6.193 v 7.414 c 0,0.815 -0.652,1.712 -1.467,1.956 l -31.289,10.43 c -2.444,0.815 -4.482,3.585 -4.482,6.193 v 9.696 c 0,7.659 6.193,12.304 13.853,12.304 h 29.007 v -5.949 c 0,-0.57 -0.407,-1.059 -1.059,-1.059 h -27.948 c -3.423,0 -6.275,-2.2 -6.275,-5.622 v -7.904 c 0,-0.896 0.652,-1.793 1.467,-2.037 L 9.126,21.267 C 11.57,20.452 13.363,17.6 13.363,14.993 V 6.274 C 13.363,-1.385 7.578,-7.007 0,-7.007 h -31.208 v 5.948 c 0,0.652 0.489,1.059 1.06,1.059 z"
             style="fill:#ffffff;fill-opacity:1;fill-rule:nonzero;stroke:none"
             id="path63" /></g><g
           id="g65"
           transform="translate(113.9873,199.6035)"><path
             d="m 0,0 v -5.948 c 0,-0.571 -0.489,-1.059 -1.06,-1.059 h -17.437 v -53.127 c 0,-0.57 -0.407,-1.059 -1.059,-1.059 h -6.6 v 54.186 h -18.252 v 5.948 c 0,0.57 0.489,1.059 1.059,1.059 z"
             style="fill:#ffffff;fill-opacity:1;fill-rule:nonzero;stroke:none"
             id="path67" /></g><g
           id="g69"
           transform="translate(158.7168,162.2031)"><path
             d="m 0,0 -10.593,30.393 h -3.992 c -0.652,0 -1.223,-0.408 -1.467,-1.059 L -26.237,0 Z M 16.052,-23.792 H 9.37 c -0.733,0 -1.304,0.488 -1.467,1.059 L 2.444,-7.007 h -31.126 l -5.459,-15.726 c -0.163,-0.571 -0.815,-1.059 -1.467,-1.059 h -6.682 l 19.882,56.629 c 0.978,2.689 3.504,4.563 6.437,4.563 h 9.697 c 0.407,0 0.815,-0.244 0.978,-0.57 z"
             style="fill:#ffffff;fill-opacity:1;fill-rule:nonzero;stroke:none"
             id="path71" /></g><g
           id="g73"
           transform="translate(211.4307,172.5518)"><path
             d="m 0,0 c 3.422,0 6.192,2.77 6.192,6.192 v 7.66 c 0,3.422 -2.77,6.192 -6.192,6.192 h -21.104 c -0.896,0 -1.548,-0.733 -1.548,-1.548 V 1.548 C -22.652,0.652 -21.918,0 -21.104,0 Z m -22.652,-4.808 v -28.274 c 0,-0.57 -0.489,-1.059 -1.059,-1.059 h -6.601 v 56.467 c 0,2.607 2.119,4.726 4.727,4.726 H 0 c 7.659,0 13.852,-4.808 13.852,-13.119 V 6.029 C 13.852,-1.141 8.719,-5.052 2.771,-6.6 L 15.808,-34.141 H 8.719 c -0.571,0 -1.223,0.489 -1.467,0.978 L -5.133,-7.008 h -10.43 -2.363 c -2.282,0 -3.992,0.652 -4.563,2.2 z"
             style="fill:#ffffff;fill-opacity:1;fill-rule:nonzero;stroke:none"
             id="path75" /></g><g
           id="g77"
           transform="translate(274.7383,199.6035)"><path
             d="m 0,0 v -5.948 c 0,-0.571 -0.489,-1.059 -1.06,-1.059 h -17.437 v -53.127 c 0,-0.57 -0.407,-1.059 -1.059,-1.059 h -6.6 v 54.186 h -18.252 v 5.948 c 0,0.57 0.489,1.059 1.059,1.059 z"
             style="fill:#ffffff;fill-opacity:1;fill-rule:nonzero;stroke:none"
             id="path79" /></g></g></g></g></svg>
